<?xml version="1.0" encoding="UTF-8"?>
<svg id="Layer_1" xmlns="http://www.w3.org/2000/svg" viewBox="0 0 375 600"><defs><style>.cls-1{fill:#fff;}.cls-2{fill:#931923;}</style>
 
      <filter id="f3" x="0" y="0" width="200%" height="200%">
      <feOffset result="offOut" in="SourceAlpha" dx="10" dy="15" />
      <feGaussianBlur result="blurOut" in="offOut" stdDeviation="10" />
      <feBlend in="SourceGraphic" in2="blurOut" mode="normal" />
    </filter></defs>
  <path style="filter:url(#f3);" class="cls-1" d="M110.13,560.27c-.15-.47-.3-.95-.45-1.42-.35-1.11-.71-2.22-1.02-3.34-.99-3.55-1.97-7.1-2.95-10.65-.64-2.32-1.28-4.64-1.92-6.96-.81-2.92-3.97-14.27-4.74-17.03-.81-2.94-5.51-19.94-5.51-19.94-1.28-4.63-2.56-9.27-3.86-13.9-.76-2.7-1.53-5.4-2.3-8.1-.73-2.55-1.45-5.11-2.17-7.66-1.05-3.73-2.09-7.46-3.13-11.2-1.06-3.82-2.13-7.64-3.2-11.46-.76-2.69-1.52-5.38-2.29-8.07-.68-2.38-1.36-4.75-2.03-7.13-.92-3.27-1.84-6.54-2.75-9.81-1.16-4.13-2.31-8.26-3.48-12.39-.68-2.39-1.37-4.77-2.06-7.15-.74-2.57-1.49-5.13-2.21-7.7-.85-3.02-1.69-6.04-2.53-9.07-1.01-3.63-2.01-7.26-3.04-10.88-.99-3.49-2.01-6.96-3.04-10.44-.57-1.94-1.14-3.88-1.71-5.83-.88-3.04-1.76-6.07-2.64-9.11-1.21-4.16-2.41-8.31-3.62-12.47-1.49-5.11-2.99-10.21-4.49-15.32l-2.23-7.59c-.51-1.73-1.02-3.47-1.53-5.2-1.19-4.01-2.41-8.15-3.58-12.25-1.76-6.21-3.65-13-5.93-21.37-2.02-7.41-3.86-14.27-5.62-20.97-1.42-5.41-3.08-11.8-4.66-18.24-1.5-6.12-3.24-13.34-4.83-20.52-1.28-5.82-2.48-11.73-3.64-17.45l-.76-3.75c-1.05-5.18-2.13-10.48-3.1-15.75-.52-2.83-.96-5.69-1.39-8.45-.19-1.24-.39-2.48-.59-3.72-.17-1.05-.34-2.09-.52-3.14-.4-2.38-.8-4.84-1.15-7.3-.27-1.97-.48-3.95-.67-5.85-.11-1.06-.22-2.12-.34-3.19-.15-1.31-.31-2.62-.47-3.94-.25-2.06-.5-4.12-.71-6.19-.12-1.14-.2-2.28-.27-3.42-.07-.99-.13-1.98-.23-2.97C-.11,123.38-.03,114.76,.04,106.43c.02-1.81,.03-3.62,.04-5.43,.01-2.78,.33-5.46,.64-8.05,.1-.86,.2-1.72,.29-2.57,.28-2.68,.57-5.46,1.02-8.24,.52-3.2,1.13-6.39,1.82-9.5,1.2-5.41,2.96-11.02,5.39-17.15,3.27-8.29,7.07-15.09,11.59-20.8,2.33-2.94,5.46-6.78,8.96-10.42,4.22-4.38,9.4-8.31,15.82-12.01,6.05-3.49,11.75-5.93,17.42-7.46,3.47-.94,6.98-1.72,10.38-2.48,1.39-.31,2.77-.62,4.15-.94,5.25-1.21,10.37-1.38,14.69-1.38,1.59,0,3.18,.03,4.77,.05,1.37,.02,2.74,.04,4.1,.05,2.3,0,4.42,.38,6.47,.75,.48,.08,.96,.17,1.44,.25,2.95,.48,6.13,1.03,9.35,1.71,5.42,1.15,10.4,3.22,14.14,4.89,6.68,2.99,12.25,6.13,17.05,9.6,3.35,2.42,6.3,4.75,9.04,7.1,3.4,2.93,6.24,5.61,8.69,8.2,5.28,5.57,9.72,10.92,13.57,16.38,4.14,5.86,7.79,12.18,10.85,18.77,4.36,9.4,7.2,18.01,8.66,26.32,.45,2.54,.86,5.28,1.23,8.31,.07-.08,.13-.17,.2-.25,1.21-1.55,2.43-3.08,3.66-4.61,.63-.78,1.25-1.56,1.88-2.34l2.63-3.32c1.54-1.95,3.09-3.89,4.64-5.83,1.9-2.38,4.12-5.14,6.36-7.85,2.5-3.02,5.46-6.6,8.54-10.22,1.29-1.51,2.65-2.9,3.96-4.24,1.98-2.02,4.08-4.15,6.26-6.26,5.9-5.71,11.47-10.33,17.02-14.11,7.9-5.39,14.78-8.8,21.66-10.73,2.78-.78,5.89-1.42,9.78-2,2.43-.37,4.8-.55,7.05-.55,.34,0,.69,0,1.03,.01,11.16,.28,19.86,2.41,27.37,6.69,3.91,2.23,7.45,4.91,10.87,7.51l.1,.08c1.81,1.37,3.31,2.91,4.76,4.39,.35,.35,.69,.71,1.04,1.05,5.88,5.88,9.91,13.17,11.96,21.69,1.56,6.46,1.64,12.83,1.58,18.8-.07,7.3-.83,13.7-2.32,19.57-1.5,5.87-3.02,11.85-4.95,17.69-1.84,5.58-4.15,11.01-6.16,15.58-2.43,5.54-4.98,10.85-7.57,15.79-2.35,4.49-4.97,9.03-8.02,13.86-3.35,5.32-6.85,10.38-9.82,14.63-3.44,4.91-6.98,9.84-10.41,14.61-1.43,2-2.87,3.99-4.3,5.99l-3.13,4.39c-2.49,3.49-5.06,7.1-7.64,10.64-2.59,3.56-5.21,7.1-7.83,10.65-1.72,2.33-3.44,4.65-5.16,6.99-1.85,2.52-3.69,5.04-5.53,7.56-2.71,3.72-5.43,7.43-8.17,11.13-2.26,3.06-4.55,6.11-6.83,9.15-2.02,2.7-4.05,5.4-6.05,8.11-2.12,2.85-4.22,5.72-6.32,8.59-1.81,2.47-3.63,4.95-5.45,7.42-1.79,2.42-3.59,4.83-5.39,7.23-1.56,2.09-3.12,4.17-4.67,6.26-3.23,4.35-6.44,8.72-9.65,13.08l-3.9,5.29c-2.85,3.87-5.7,7.73-8.52,11.61-2.67,3.67-5.32,7.36-7.97,11.04l-3.15,4.38c-1.14,1.59-2.3,3.17-3.46,4.75-2.53,3.45-5.15,7.02-7.53,10.58-5.79,8.67-10.11,15.44-14.01,21.96-3.02,5.04-5.81,10.42-8.52,15.62l-1.2,2.31c-2.63,5.04-4.86,9.59-6.83,13.9-2.25,4.95-4.43,10.07-6.53,15.03l-1.2,2.82c-4.88,11.46-9.15,23.14-12.7,34.7-2.45,7.99-4.82,16.41-7.04,25.02-1,3.91-1.7,7.87-2.43,12.07l-.46,2.63c-.61,3.43-1.16,7.09-1.63,10.9-.23,1.84-.32,3.73-.41,5.74l-.11,2.16c-.17,3.29-.34,6.7-.42,10.01-.09,3.75-.14,7.5-.19,11.25-.02,1.7-.04,3.39-.07,5.09,0,.29-.03,.58-.05,.86l-.29,3.69-3.92,1-4.57,1.13-1.4-4.5Z"/><g><path class="cls-2" d="M175.31,132.93c1.27,1.08,2.42,2.05,3.77,3.19,5.77-6.88,11.49-13.69,17.23-20.52,.68,.58,.47,1.18,.49,1.69,.61,13.99,.5,27.98-.43,41.95-.68,10.13-1.79,20.22-3.75,30.19-1.4,7.12-3.2,14.17-5.31,21.13-4.36,14.37-8.66,28.76-12.97,43.15-3.74,12.47-7.47,24.94-11.21,37.41-4.54,15.15-9.08,30.3-13.62,45.45-4.22,14.08-8.44,28.16-12.68,42.23-6.06,20.12-12.12,40.23-18.22,60.34-4.55,14.98-9.16,29.94-13.75,44.91-1.1,3.59-2.24,7.17-3.34,10.76-.48,1.58-.47,1.67,1.21,2.17,3.66,1.08,2.93,1.43,3.98-2,5.42-17.63,10.86-35.26,16.23-52.91,6.11-20.09,12.16-40.21,18.23-60.32,2.72-9.02,5.44-18.05,8.12-27.08,.34-1.14,.79-1.92,1.97-2.45,5.25-2.35,9.63-5.96,13.71-9.91,6.8-6.58,12.6-14,17.92-21.82,6.62-9.72,12.43-19.92,17.87-30.33,6.89-13.18,13.08-26.68,18.4-40.57,3.29-8.58,6.13-17.31,8.14-26.29,1.86-8.3,3.09-16.66,2.68-25.2-.23-4.79-.63-9.57-1.98-14.21-.68-2.34-1.97-4.37-3.21-6.4-.95-1.56-2.22-2.92-3.33-4.38-3.13-4.1-7.72-5.78-12.33-7.4-2.11-.74-4.25-1.45-6.47-1.71-1.45-.17-1.58-.83-1.51-2.05,.34-5.59,.72-11.17,.86-16.77,.27-11.35,.32-22.71-.67-34.03-.1-1.11,.14-1.97,.86-2.84,9.82-11.89,19.15-24.19,29.19-35.89,5.62-6.55,11.79-12.59,18.38-18.2,6.29-5.37,13.05-10.06,20.49-13.62,6.72-3.22,13.82-5.25,21.4-5.56,4.67-.19,9.3,.01,13.82,.86,4.91,.91,9.72,2.3,14.23,4.74,7.06,3.82,13.16,8.75,18.34,14.82,3.88,4.54,6.55,9.75,8.13,15.56,2.29,8.4,2.21,16.96,1.54,25.48-.53,6.67-1.96,13.25-3.74,19.73-3.73,13.55-9.4,26.29-15.72,38.78-6.04,11.95-13.76,22.84-21.45,33.75-23.63,33.5-48.23,66.28-72.6,99.24-17.67,23.9-35.39,47.76-52.71,71.92-10.96,15.29-20.46,31.45-28.79,48.32-9.11,18.44-16.91,37.4-23.48,56.89-2.66,7.88-5.04,15.84-7.19,23.86-2.43,9.1-4.42,18.32-5.76,27.66-1.64,11.42-1.99,22.92-2.04,34.43,0,2.35,0,4.7,0,7.52-.97-1.63-1.18-3.05-1.56-4.39-5.6-20.07-11.14-40.16-16.74-60.23-4.64-16.61-9.32-33.21-14-49.8-6.91-24.5-13.83-49.01-20.75-73.51-5.66-20.05-11.77-39.96-17.59-59.96-6.51-22.37-12.77-44.82-18.43-67.43-4.31-17.18-8.33-34.44-11.7-51.83-2.25-11.59-4.35-23.22-5.96-34.92-1.05-7.67-1.8-15.38-2.58-23.09-.95-9.41-.92-18.84-.99-28.26-.05-5.99,.71-11.96,1.4-17.91,1.3-11.23,4.14-22.13,8.56-32.52,2.21-5.19,4.9-10.2,8.17-14.88,3.46-4.94,7.28-9.54,11.68-13.62,3.39-3.15,7.09-5.94,11.03-8.41,7.79-4.89,16.18-8.14,25.16-10.17,6.25-1.42,12.51-2.73,18.89-2.84,5.57-.1,11.18-.23,16.72,.8,1.57,.29,3.15,.5,4.73,.72,6.29,.88,12.37,2.81,18.09,5.32,7.49,3.29,14.62,7.32,21.2,12.43,7.78,6.04,14.54,13.03,20.72,20.53,5.93,7.19,11.01,15.08,15.08,23.56,4.55,9.49,7.95,19.33,9.61,29.74,.44,2.76,.86,5.52,1.02,8.32,.07,1.19-.26,2.1-1.05,3.03-6.18,7.33-12.3,14.71-18.44,22.08-.36,.43-.69,.88-1.21,1.55Zm-54.12,15.3c1.26,6.92,2.22,13.88,2.85,20.89,.62,6.92,1.33,13.84,2.09,20.75,1.41,12.87,2.63,25.76,3.5,38.68,.59,8.69,1.03,17.4,1.34,26.1,.32,8.79,.62,17.58,.56,26.37-.09,12.07-.45,24.14-1.59,36.17-1.08,11.3-2.19,22.58-5.48,33.52-.97,3.24-3.24,5.64-4.95,8.4-.11,.18-.38,.28-.58,.4-3.38,2.18-6.91,1.85-10.21,.1-5.08-2.7-9.11-6.74-12.67-11.19-5.72-7.15-10.3-14.98-13.61-23.55-1.28-3.31-2.2-6.72-2.57-10.18-.85-7.95-1.13-15.94-.06-23.92,1.08-8.06,3.2-15.77,7.32-22.85,1.37-2.35,2.4-4.96,4.12-7.01,3.59-4.28,7.21-8.57,11.32-12.37,4.17-3.85,8.53-7.48,12.81-11.2,.42-.37,.91-.67,1.27-1.09,.78-.91,.79-2.18,.07-3.1-.72-.91-1.66-1.18-2.78-.82-.79,.25-1.37,.8-1.99,1.31-7.58,6.27-14.9,12.79-21.39,20.24-2.48,2.85-4.74,5.78-6.49,9.13-1.44,2.76-3.44,5.31-4.42,8.22-1.73,5.12-3.55,10.23-4.43,15.64-1.47,9.08-1.4,18.15-.54,27.24,.33,3.5,1.06,6.98,2.23,10.28,3.06,8.63,7.34,16.62,12.79,24.02,4.55,6.18,9.73,11.61,16.37,15.55,2.83,1.68,6.06,1.84,9.18,2.39,.22,.04,.49-.03,.7-.12,3.73-1.54,7.75-2.63,9.59-6.88,.53-1.23,1.45-2.29,2.22-3.41,.6-.87,1.04-1.81,1.27-2.83,1.48-6.45,3.26-12.81,4.12-19.43,1.61-12.46,2.66-24.95,3.11-37.49,.41-11.35,.36-22.7,0-34.05-.46-14.7-1.12-29.4-2.38-44.05-.63-7.32-1.25-14.65-1.95-21.96-.6-6.28-1.29-12.56-1.95-18.84-.69-6.51-1.16-13.06-2.14-19.53-1.52-10.02-3.39-20-5.13-29.98-1.84-10.54-3.74-21.07-5.56-31.61-1.75-10.15-3.49-20.3-5.13-30.47-.58-3.61-1.37-7.23-1.09-11.28,1.04,.71,1.53,1.52,2.05,2.29,1.73,2.6,3.29,5.31,4.64,8.11,7.96,16.43,14.72,33.32,19.31,51.01,1.89,7.29,3.11,14.67,2.68,22.28-.12,2.2-1.17,3.56-2.63,4.84-.48,.42-1.04,.75-1.6,1.04-.89,.46-1.03,.93-.49,1.87,1.87,3.27,2.26,3.47,5.14,1.12,2.04-1.66,4.13-3.54,4.44-6.32,.31-2.76,.46-5.57,.26-8.37-.7-10.03-3.12-19.7-6.2-29.22-3.62-11.18-7.94-22.09-12.74-32.81-2.64-5.91-5.5-11.71-9.14-17.1-1.33-1.97-3.11-3.44-5.02-4.74-2.3-1.56-4.75-.52-5.56,2.14-.45,1.49-.5,2.97-.41,4.5,.3,5.04,1.09,10.01,1.93,14.97,2.55,15.05,5.13,30.09,7.73,45.13l5.82,33.05Z"/><path class="cls-2" d="M152.09,346.12c.38-2.73,1.29-5.02,1.99-7.36,4.29-14.39,8.64-28.76,12.95-43.15,6.01-20.05,12.05-40.09,17.97-60.16,3.52-11.95,7.43-23.78,10.46-35.88,2.39-9.56,3.89-19.25,4.9-29.03,.19-1.88,.18-1.93,1.98-1.55,4.16,.88,8.13,2.33,11.9,4.29,1.67,.87,2.78,2.37,4,3.74,4.46,5.01,6.02,11.04,6.56,17.59,1.01,12.24-1.09,24.05-4.48,35.69-6.47,22.19-16.2,42.99-27.08,63.3-5.36,10.01-11.21,19.72-17.89,28.91-5.51,7.58-11.54,14.7-18.88,20.6-1.31,1.05-2.7,1.94-4.36,3Z"/></g></svg>